<svg width="159" height="13" viewBox="0 0 159 13" fill="none" xmlns="http://www.w3.org/2000/svg">
<path d="M5.796 11.098C5.05867 11.098 4.37733 10.972 3.752 10.72C3.136 10.468 2.59933 10.1133 2.142 9.656C1.68467 9.19867 1.32533 8.662 1.064 8.046C0.812 7.43 0.686 6.758 0.686 6.03C0.686 5.31133 0.812 4.644 1.064 4.028C1.32533 3.412 1.68467 2.88 2.142 2.432C2.59933 1.97467 3.136 1.62 3.752 1.368C4.37733 1.116 5.05867 0.99 5.796 0.99C6.53333 0.99 7.21 1.116 7.826 1.368C8.45133 1.62 8.99267 1.97467 9.45 2.432C9.91667 2.88 10.276 3.412 10.528 4.028C10.7893 4.644 10.92 5.31133 10.92 6.03C10.92 6.758 10.7893 7.43 10.528 8.046C10.276 8.662 9.91667 9.19867 9.45 9.656C8.99267 10.1133 8.45133 10.468 7.826 10.72C7.21 10.972 6.53333 11.098 5.796 11.098ZM5.796 10.664C6.67333 10.664 7.462 10.4727 8.162 10.09C8.87133 9.698 9.43133 9.15667 9.842 8.466C10.262 7.77533 10.472 6.97733 10.472 6.072C10.472 5.4 10.3553 4.784 10.122 4.224C9.88867 3.65467 9.562 3.16 9.142 2.74C8.722 2.32 8.22733 1.998 7.658 1.774C7.08867 1.54067 6.468 1.424 5.796 1.424C5.13333 1.424 4.51733 1.54067 3.948 1.774C3.37867 1.998 2.884 2.32 2.464 2.74C2.044 3.16 1.71733 3.65 1.484 4.21C1.25067 4.77 1.134 5.38133 1.134 6.044C1.134 6.69733 1.25067 7.30867 1.484 7.878C1.71733 8.438 2.044 8.928 2.464 9.348C2.884 9.768 3.374 10.0947 3.934 10.328C4.50333 10.552 5.124 10.664 5.796 10.664ZM5.894 9.264C5.362 9.264 4.85333 9.13333 4.368 8.872C3.88267 8.61067 3.48133 8.23733 3.164 7.752C2.856 7.26667 2.702 6.69267 2.702 6.03C2.702 5.64733 2.76267 5.26467 2.884 4.882C3.01467 4.49 3.206 4.13533 3.458 3.818C3.71 3.50067 4.032 3.24867 4.424 3.062C4.816 2.866 5.278 2.768 5.81 2.768C6.37933 2.768 6.89733 2.894 7.364 3.146C7.84 3.398 8.176 3.77133 8.372 4.266L7.7 4.49C7.56933 4.182 7.392 3.95333 7.168 3.804C6.944 3.64533 6.706 3.538 6.454 3.482C6.21133 3.426 5.99667 3.398 5.81 3.398C5.26867 3.398 4.82067 3.53333 4.466 3.804C4.11133 4.06533 3.84533 4.39667 3.668 4.798C3.5 5.19933 3.416 5.61 3.416 6.03C3.416 6.58067 3.542 7.052 3.794 7.444C4.05533 7.836 4.37267 8.13467 4.746 8.34C5.11933 8.536 5.488 8.634 5.852 8.634C6.09467 8.634 6.34667 8.58733 6.608 8.494C6.86933 8.40067 7.10733 8.27 7.322 8.102C7.546 7.934 7.70933 7.72867 7.812 7.486L8.484 7.682C8.41867 7.88733 8.26467 8.116 8.022 8.368C7.78867 8.61067 7.49 8.82067 7.126 8.998C6.762 9.17533 6.35133 9.264 5.894 9.264ZM15.7771 7.178L19.1931 4.728V5.358L16.3651 7.374L19.1931 9.376V10.006L15.7771 7.598V7.178ZM18.6051 7.178L22.0211 4.728V5.358L19.1931 7.374L22.0211 9.376V10.006L18.6051 7.598V7.178ZM30.8517 10.356V11H24.2297V1.06H30.7257V1.704H24.9437V5.61H29.9977V6.226H24.9437V10.356H30.8517ZM34.454 11V4.35H31.78V3.72H37.842V4.35H35.154V11H34.454ZM39.1955 11V3.72H39.8955V6.954H44.3895V3.72H45.0895V11H44.3895V7.584H39.8955V11H39.1955ZM50.3276 11.14C49.6463 11.14 49.0349 10.9673 48.4936 10.622C47.9616 10.2767 47.5416 9.81933 47.2336 9.25C46.9256 8.68067 46.7716 8.05533 46.7716 7.374C46.7716 6.86067 46.8603 6.38 47.0376 5.932C47.2149 5.47467 47.4669 5.07333 47.7936 4.728C48.1203 4.37333 48.4983 4.098 48.9276 3.902C49.3569 3.69667 49.8236 3.594 50.3276 3.594C50.8316 3.594 51.2983 3.69667 51.7276 3.902C52.1569 4.098 52.5303 4.37333 52.8476 4.728C53.1743 5.07333 53.4263 5.47467 53.6036 5.932C53.7903 6.38 53.8836 6.86067 53.8836 7.374C53.8836 8.05533 53.7249 8.68067 53.4076 9.25C53.0996 9.81933 52.6749 10.2767 52.1336 10.622C51.6016 10.9673 50.9996 11.14 50.3276 11.14ZM47.4716 7.402C47.4716 7.97133 47.5976 8.494 47.8496 8.97C48.1109 9.43667 48.4563 9.81 48.8856 10.09C49.3149 10.37 49.7909 10.51 50.3136 10.51C50.8363 10.51 51.3123 10.37 51.7416 10.09C52.1803 9.80067 52.5256 9.418 52.7776 8.942C53.0389 8.466 53.1696 7.93867 53.1696 7.36C53.1696 6.79067 53.0389 6.268 52.7776 5.792C52.5256 5.316 52.1803 4.938 51.7416 4.658C51.3123 4.36867 50.8409 4.224 50.3276 4.224C49.8049 4.224 49.3289 4.36867 48.8996 4.658C48.4703 4.94733 48.1249 5.33467 47.8636 5.82C47.6023 6.296 47.4716 6.82333 47.4716 7.402ZM54.7488 12.68V10.356H54.8608C55.0848 10.356 55.2854 10.286 55.4628 10.146C55.6494 10.006 55.8128 9.76333 55.9528 9.418C56.0928 9.07267 56.2048 8.59667 56.2888 7.99C56.3821 7.38333 56.4428 6.61333 56.4708 5.68L56.5267 3.72H61.0628V10.356H62.0428V12.68H61.3988V11H55.3788V12.68H54.7488ZM56.0508 10.356H60.3628V4.35H57.1708L57.1288 5.722C57.0821 7.14067 56.9701 8.20933 56.7928 8.928C56.6154 9.63733 56.3681 10.1133 56.0508 10.356ZM63.5315 2.068V0.78H64.2315V2.068H63.5315ZM63.5315 11V3.72H64.2315V11H63.5315ZM66.4299 11V3.72H67.1299L70.1959 8.956L73.2619 3.72H73.9479V11H73.2759V4.826L70.4199 9.698H69.9579L67.1019 4.84V11H66.4299ZM82.1989 7.598L78.7829 10.006V9.376L81.6109 7.374L78.7829 5.358V4.728L82.1989 7.178V7.598ZM79.3849 7.598L75.9549 10.006V9.376L78.7969 7.374L75.9549 5.358V4.728L79.3849 7.178V7.598ZM87.0512 11C87.0232 10.1973 87.1119 9.516 87.3172 8.956C87.5319 8.396 87.8352 7.92933 88.2272 7.556C88.6286 7.18267 89.0859 6.87 89.5992 6.618C89.9539 6.45 90.3179 6.28667 90.6912 6.128C91.0739 5.96933 91.4286 5.792 91.7552 5.596C92.0819 5.4 92.3432 5.15733 92.5392 4.868C92.7446 4.56933 92.8472 4.20067 92.8472 3.762C92.8472 3.38867 92.7632 3.03867 92.5952 2.712C92.4272 2.376 92.1706 2.10533 91.8252 1.9C91.4799 1.69467 91.0412 1.592 90.5092 1.592C89.9866 1.592 89.5386 1.68067 89.1652 1.858C88.7919 2.026 88.4792 2.23133 88.2272 2.474C87.9752 2.70733 87.7792 2.91733 87.6392 3.104L87.1632 2.67C87.1912 2.62333 87.2846 2.51133 87.4432 2.334C87.6019 2.14733 87.8212 1.94667 88.1012 1.732C88.3906 1.51733 88.7406 1.33067 89.1512 1.172C89.5619 1.01333 90.0379 0.933999 90.5792 0.933999C91.2512 0.933999 91.8112 1.06933 92.2592 1.34C92.7166 1.60133 93.0572 1.94667 93.2812 2.376C93.5052 2.80533 93.6172 3.26733 93.6172 3.762C93.6172 4.266 93.5146 4.686 93.3092 5.022C93.1039 5.358 92.8379 5.64267 92.5112 5.876C92.1846 6.1 91.8392 6.29133 91.4752 6.45C91.1206 6.60867 90.7846 6.758 90.4672 6.898C89.8512 7.15933 89.3659 7.43933 89.0112 7.738C88.6566 8.02733 88.3952 8.32133 88.2272 8.62C88.0592 8.91867 87.9472 9.21733 87.8912 9.516C87.8352 9.80533 87.8072 10.0853 87.8072 10.356H93.6312V11H87.0512ZM99.1503 11.14C98.4783 11.1213 97.8903 10.958 97.3863 10.65C96.8823 10.3327 96.4623 9.92667 96.1263 9.432C95.7903 8.93733 95.5336 8.40067 95.3563 7.822C95.1883 7.234 95.1043 6.66 95.1043 6.1C95.1043 5.50267 95.1976 4.90533 95.3843 4.308C95.571 3.71067 95.837 3.16933 96.1823 2.684C96.537 2.18933 96.9616 1.79733 97.4563 1.508C97.9603 1.20933 98.525 1.06 99.1503 1.06C99.813 1.06 100.396 1.21867 100.9 1.536C101.414 1.85333 101.838 2.264 102.174 2.768C102.51 3.272 102.762 3.818 102.93 4.406C103.108 4.994 103.196 5.55867 103.196 6.1C103.196 6.70667 103.103 7.30867 102.916 7.906C102.73 8.494 102.459 9.03067 102.104 9.516C101.759 10.0013 101.334 10.3933 100.83 10.692C100.336 10.9813 99.7756 11.1307 99.1503 11.14ZM95.8183 6.1C95.837 6.61333 95.921 7.12667 96.0703 7.64C96.2196 8.15333 96.4296 8.62467 96.7003 9.054C96.9803 9.48333 97.321 9.82867 97.7223 10.09C98.133 10.3513 98.609 10.482 99.1503 10.482C99.7103 10.482 100.196 10.3467 100.606 10.076C101.026 9.796 101.372 9.43667 101.642 8.998C101.922 8.55 102.132 8.074 102.272 7.57C102.412 7.05667 102.482 6.56667 102.482 6.1C102.482 5.58667 102.403 5.07333 102.244 4.56C102.095 4.04667 101.876 3.57533 101.586 3.146C101.306 2.71667 100.961 2.37133 100.55 2.11C100.14 1.84867 99.673 1.718 99.1503 1.718C98.5903 1.718 98.1003 1.858 97.6803 2.138C97.2696 2.418 96.9243 2.782 96.6443 3.23C96.3736 3.66867 96.1683 4.14467 96.0283 4.658C95.8883 5.162 95.8183 5.64267 95.8183 6.1ZM108.639 11.14C107.967 11.1213 107.379 10.958 106.875 10.65C106.371 10.3327 105.951 9.92667 105.615 9.432C105.279 8.93733 105.022 8.40067 104.845 7.822C104.677 7.234 104.593 6.66 104.593 6.1C104.593 5.50267 104.686 4.90533 104.873 4.308C105.059 3.71067 105.325 3.16933 105.671 2.684C106.025 2.18933 106.45 1.79733 106.945 1.508C107.449 1.20933 108.013 1.06 108.639 1.06C109.301 1.06 109.885 1.21867 110.389 1.536C110.902 1.85333 111.327 2.264 111.663 2.768C111.999 3.272 112.251 3.818 112.419 4.406C112.596 4.994 112.685 5.55867 112.685 6.1C112.685 6.70667 112.591 7.30867 112.405 7.906C112.218 8.494 111.947 9.03067 111.593 9.516C111.247 10.0013 110.823 10.3933 110.319 10.692C109.824 10.9813 109.264 11.1307 108.639 11.14ZM105.307 6.1C105.325 6.61333 105.409 7.12667 105.559 7.64C105.708 8.15333 105.918 8.62467 106.189 9.054C106.469 9.48333 106.809 9.82867 107.211 10.09C107.621 10.3513 108.097 10.482 108.639 10.482C109.199 10.482 109.684 10.3467 110.095 10.076C110.515 9.796 110.86 9.43667 111.131 8.998C111.411 8.55 111.621 8.074 111.761 7.57C111.901 7.05667 111.971 6.56667 111.971 6.1C111.971 5.58667 111.891 5.07333 111.733 4.56C111.583 4.04667 111.364 3.57533 111.075 3.146C110.795 2.71667 110.449 2.37133 110.039 2.11C109.628 1.84867 109.161 1.718 108.639 1.718C108.079 1.718 107.589 1.858 107.169 2.138C106.758 2.418 106.413 2.782 106.133 3.23C105.862 3.66867 105.657 4.14467 105.517 4.658C105.377 5.162 105.307 5.64267 105.307 6.1ZM113.983 4.392C113.983 3.76667 114.137 3.19733 114.445 2.684C114.762 2.16133 115.182 1.75067 115.705 1.452C116.237 1.144 116.83 0.99 117.483 0.99C118.164 0.99 118.771 1.15333 119.303 1.48C119.835 1.79733 120.255 2.25933 120.563 2.866C120.871 3.47267 121.025 4.196 121.025 5.036C121.025 6.41733 120.871 7.56067 120.563 8.466C120.264 9.37133 119.844 10.0433 119.303 10.482C118.762 10.9207 118.132 11.14 117.413 11.14C116.75 11.14 116.158 10.9673 115.635 10.622C115.112 10.2767 114.725 9.80533 114.473 9.208L114.963 8.83C115.15 9.334 115.467 9.74 115.915 10.048C116.363 10.3467 116.862 10.496 117.413 10.496C118.29 10.496 118.995 10.0853 119.527 9.264C120.068 8.43333 120.339 7.26667 120.339 5.764C120.134 6.36133 119.76 6.84667 119.219 7.22C118.678 7.59333 118.071 7.78 117.399 7.78C116.764 7.78 116.19 7.63067 115.677 7.332C115.164 7.024 114.753 6.61333 114.445 6.1C114.137 5.58667 113.983 5.01733 113.983 4.392ZM117.455 1.606C116.951 1.606 116.484 1.732 116.055 1.984C115.635 2.236 115.299 2.572 115.047 2.992C114.795 3.412 114.669 3.874 114.669 4.378C114.669 4.89133 114.795 5.358 115.047 5.778C115.308 6.198 115.649 6.53867 116.069 6.8C116.498 7.052 116.965 7.178 117.469 7.178C117.982 7.178 118.449 7.052 118.869 6.8C119.298 6.53867 119.639 6.198 119.891 5.778C120.152 5.358 120.283 4.896 120.283 4.392C120.283 3.888 120.152 3.426 119.891 3.006C119.639 2.586 119.298 2.25 118.869 1.998C118.44 1.73667 117.968 1.606 117.455 1.606ZM122.713 7.514V6.87H126.745V7.514H122.713ZM128.368 11C128.34 10.1973 128.428 9.516 128.634 8.956C128.848 8.396 129.152 7.92933 129.544 7.556C129.945 7.18267 130.402 6.87 130.916 6.618C131.27 6.45 131.634 6.28667 132.008 6.128C132.39 5.96933 132.745 5.792 133.072 5.596C133.398 5.4 133.66 5.15733 133.856 4.868C134.061 4.56933 134.164 4.20067 134.164 3.762C134.164 3.38867 134.08 3.03867 133.912 2.712C133.744 2.376 133.487 2.10533 133.142 1.9C132.796 1.69467 132.358 1.592 131.826 1.592C131.303 1.592 130.855 1.68067 130.482 1.858C130.108 2.026 129.796 2.23133 129.544 2.474C129.292 2.70733 129.096 2.91733 128.956 3.104L128.48 2.67C128.508 2.62333 128.601 2.51133 128.76 2.334C128.918 2.14733 129.138 1.94667 129.418 1.732C129.707 1.51733 130.057 1.33067 130.468 1.172C130.878 1.01333 131.354 0.933999 131.896 0.933999C132.568 0.933999 133.128 1.06933 133.576 1.34C134.033 1.60133 134.374 1.94667 134.598 2.376C134.822 2.80533 134.934 3.26733 134.934 3.762C134.934 4.266 134.831 4.686 134.626 5.022C134.42 5.358 134.154 5.64267 133.828 5.876C133.501 6.1 133.156 6.29133 132.792 6.45C132.437 6.60867 132.101 6.758 131.784 6.898C131.168 7.15933 130.682 7.43933 130.328 7.738C129.973 8.02733 129.712 8.32133 129.544 8.62C129.376 8.91867 129.264 9.21733 129.208 9.516C129.152 9.80533 129.124 10.0853 129.124 10.356H134.948V11H128.368ZM140.467 11.14C139.795 11.1213 139.207 10.958 138.703 10.65C138.199 10.3327 137.779 9.92667 137.443 9.432C137.107 8.93733 136.85 8.40067 136.673 7.822C136.505 7.234 136.421 6.66 136.421 6.1C136.421 5.50267 136.514 4.90533 136.701 4.308C136.887 3.71067 137.153 3.16933 137.499 2.684C137.853 2.18933 138.278 1.79733 138.773 1.508C139.277 1.20933 139.841 1.06 140.467 1.06C141.129 1.06 141.713 1.21867 142.217 1.536C142.73 1.85333 143.155 2.264 143.491 2.768C143.827 3.272 144.079 3.818 144.247 4.406C144.424 4.994 144.513 5.55867 144.513 6.1C144.513 6.70667 144.419 7.30867 144.233 7.906C144.046 8.494 143.775 9.03067 143.421 9.516C143.075 10.0013 142.651 10.3933 142.147 10.692C141.652 10.9813 141.092 11.1307 140.467 11.14ZM137.135 6.1C137.153 6.61333 137.237 7.12667 137.387 7.64C137.536 8.15333 137.746 8.62467 138.017 9.054C138.297 9.48333 138.637 9.82867 139.039 10.09C139.449 10.3513 139.925 10.482 140.467 10.482C141.027 10.482 141.512 10.3467 141.923 10.076C142.343 9.796 142.688 9.43667 142.959 8.998C143.239 8.55 143.449 8.074 143.589 7.57C143.729 7.05667 143.799 6.56667 143.799 6.1C143.799 5.58667 143.719 5.07333 143.561 4.56C143.411 4.04667 143.192 3.57533 142.903 3.146C142.623 2.71667 142.277 2.37133 141.867 2.11C141.456 1.84867 140.989 1.718 140.467 1.718C139.907 1.718 139.417 1.858 138.997 2.138C138.586 2.418 138.241 2.782 137.961 3.23C137.69 3.66867 137.485 4.14467 137.345 4.658C137.205 5.162 137.135 5.64267 137.135 6.1ZM145.895 11C145.867 10.1973 145.956 9.516 146.161 8.956C146.376 8.396 146.679 7.92933 147.071 7.556C147.472 7.18267 147.93 6.87 148.443 6.618C148.798 6.45 149.162 6.28667 149.535 6.128C149.918 5.96933 150.272 5.792 150.599 5.596C150.926 5.4 151.187 5.15733 151.383 4.868C151.588 4.56933 151.691 4.20067 151.691 3.762C151.691 3.38867 151.607 3.03867 151.439 2.712C151.271 2.376 151.014 2.10533 150.669 1.9C150.324 1.69467 149.885 1.592 149.353 1.592C148.83 1.592 148.382 1.68067 148.009 1.858C147.636 2.026 147.323 2.23133 147.071 2.474C146.819 2.70733 146.623 2.91733 146.483 3.104L146.007 2.67C146.035 2.62333 146.128 2.51133 146.287 2.334C146.446 2.14733 146.665 1.94667 146.945 1.732C147.234 1.51733 147.584 1.33067 147.995 1.172C148.406 1.01333 148.882 0.933999 149.423 0.933999C150.095 0.933999 150.655 1.06933 151.103 1.34C151.56 1.60133 151.901 1.94667 152.125 2.376C152.349 2.80533 152.461 3.26733 152.461 3.762C152.461 4.266 152.358 4.686 152.153 5.022C151.948 5.358 151.682 5.64267 151.355 5.876C151.028 6.1 150.683 6.29133 150.319 6.45C149.964 6.60867 149.628 6.758 149.311 6.898C148.695 7.15933 148.21 7.43933 147.855 7.738C147.5 8.02733 147.239 8.32133 147.071 8.62C146.903 8.91867 146.791 9.21733 146.735 9.516C146.679 9.80533 146.651 10.0853 146.651 10.356H152.475V11H145.895ZM158.498 10.356V11H154.144V10.356H156.02V1.76C155.917 1.90933 155.735 2.07733 155.474 2.264C155.222 2.45067 154.947 2.614 154.648 2.754C154.349 2.894 154.074 2.964 153.822 2.964V2.306C154.065 2.306 154.312 2.24067 154.564 2.11C154.816 1.97 155.049 1.81133 155.264 1.634C155.488 1.45667 155.665 1.298 155.796 1.158C155.936 1.018 156.011 0.943333 156.02 0.933999H156.72V10.356H158.498Z" fill="black"/>
</svg>
